<svg width="20" height="20" viewBox="0 0 20 20" fill="none" xmlns="http://www.w3.org/2000/svg">
<path d="M18.3332 9.99996C18.3332 14.6023 14.6022 18.3333 9.99984 18.3333C5.39746 18.3333 1.6665 14.6023 1.6665 9.99996C1.6665 5.39758 5.39746 1.66663 9.99984 1.66663C14.6022 1.66663 18.3332 5.39758 18.3332 9.99996Z" fill="#40FD3F"/>
<path d="M13.3587 7.47468C13.6028 7.71876 13.6028 8.11449 13.3587 8.35854L9.19208 12.5252C8.94799 12.7693 8.55233 12.7693 8.30822 12.5252L6.64155 10.8585C6.39748 10.6145 6.39748 10.2188 6.64155 9.97471C6.88563 9.73062 7.28136 9.73062 7.52544 9.97471L8.75016 11.1994L10.6125 9.33704L12.4749 7.47468C12.719 7.23061 13.1147 7.23061 13.3587 7.47468Z" fill="white"/>
</svg>
