<svg width="26" height="30" viewBox="0 0 26 30" fill="none" xmlns="http://www.w3.org/2000/svg">
<path fill-rule="evenodd" clip-rule="evenodd" d="M1 1.5V4.15855C1 5.94939 1.97225 7.62999 3.61046 8.67089L22.3895 20.6029C24.0277 21.6439 25 23.3245 25 25.1153V28.5H1V25.1153C1 23.3245 1.97225 21.6439 3.61046 20.6029L22.3895 8.67089C24.0277 7.62999 25 5.94939 25 4.15855V1.5H1Z" stroke="#F8D05F" stroke-width="2" stroke-linecap="round" stroke-linejoin="round"/>
<path fill-rule="evenodd" clip-rule="evenodd" d="M12.689 10.7675L6.50366 6.06754C6.24341 5.86979 6.17168 5.46659 6.34344 5.16696C6.44794 4.98468 6.62496 4.875 6.81467 4.875H19.1854C19.4972 4.875 19.75 5.16603 19.75 5.52503C19.75 5.74343 19.6547 5.94724 19.4964 6.06754L13.311 10.7675C13.1224 10.9108 12.8777 10.9108 12.689 10.7675Z" fill="#F8D05F"/>
</svg>
