<svg width="20" height="20" viewBox="0 0 20 20" fill="none" xmlns="http://www.w3.org/2000/svg">
<path fill-rule="evenodd" clip-rule="evenodd" d="M9.906 18.3167C9.96933 18.3384 10.031 18.3392 10.0943 18.3167C10.9035 18.0417 16.6668 15.8484 16.6668 9.37753V3.5867C16.667 3.51222 16.6422 3.43984 16.5965 3.38108C16.5507 3.32233 16.4866 3.28059 16.4143 3.26253L10.081 1.6767C10.0279 1.66343 9.9724 1.66343 9.91933 1.6767L3.586 3.26253C3.51375 3.28059 3.44962 3.32233 3.40386 3.38108C3.35809 3.43984 3.33332 3.51222 3.3335 3.5867V9.3767C3.3335 15.7825 9.0985 18.0325 9.906 18.3167ZM10.8402 5.83336C10.8402 6.05438 10.7524 6.26634 10.5961 6.42262C10.4398 6.5789 10.2278 6.6667 10.0068 6.6667H10.0002C9.77915 6.6667 9.56719 6.5789 9.41091 6.42262C9.25463 6.26634 9.16683 6.05438 9.16683 5.83336C9.16683 5.61235 9.25463 5.40039 9.41091 5.24411C9.56719 5.08783 9.77915 5.00003 10.0002 5.00003H10.0068C10.2278 5.00003 10.4398 5.08783 10.5961 5.24411C10.7524 5.40039 10.8402 5.61235 10.8402 5.83336ZM10.0068 13.3334C9.78582 13.3334 9.57385 13.2456 9.41757 13.0893C9.26129 12.933 9.1735 12.721 9.1735 12.5V8.33336C9.1735 8.11235 9.26129 7.90039 9.41757 7.74411C9.57385 7.58783 9.78582 7.50003 10.0068 7.50003C10.2278 7.50003 10.4398 7.58783 10.5961 7.74411C10.7524 7.90039 10.8402 8.11235 10.8402 8.33336V12.5C10.8402 12.721 10.7524 12.933 10.5961 13.0893C10.4398 13.2456 10.2278 13.3334 10.0068 13.3334Z" fill="#40FD3F"/>
</svg>
