<svg width="33" height="33" viewBox="0 0 33 33" fill="none" xmlns="http://www.w3.org/2000/svg">
<g clip-path="url(#clip0_46_14189)">
<path d="M32.6203 28.7296L32.12 28.2293C31.6622 27.7714 30.9457 27.7318 30.4383 28.1044L24.8002 22.4663C25.2295 21.7581 25.5321 20.9783 25.6884 20.1544C25.7847 19.6481 25.6494 19.1352 25.3176 18.7472C24.9918 18.3669 24.5185 18.1595 24.0166 18.1738C23.4965 18.1909 23.0332 18.4544 22.7421 18.8512L20.3916 16.5008L30.8834 6.00841C30.9379 5.95392 30.9803 5.88897 31.0078 5.81745L32.9631 0.748991C33.0413 0.545909 32.9929 0.31587 32.8387 0.161802C32.6847 0.00773295 32.4535 -0.0412801 32.2515 0.0373987L27.1837 1.9927C27.1116 2.02023 27.0466 2.06312 26.9921 2.1171L16.5003 12.6095L6.00786 2.1171C5.95337 2.06318 5.88842 2.02023 5.8169 1.9927L0.748445 0.0373987C0.545879 -0.0412801 0.315324 0.00766845 0.161256 0.161802C0.00718752 0.31587 -0.0412451 0.545909 0.0368533 0.748991L1.99215 5.81745C2.01969 5.88897 2.06206 5.95392 2.11655 6.00841L12.6089 16.5008L10.258 18.8512C9.96689 18.4544 9.50352 18.1909 8.98347 18.1738C8.47773 18.1584 8.0083 18.3669 7.68307 18.7472C7.35069 19.1352 7.21532 19.6481 7.31161 20.1544C7.46735 20.9766 7.77001 21.7548 8.20093 22.4652L2.5618 28.1043C2.05438 27.7323 1.33841 27.7714 0.880006 28.2292L0.380331 28.7295C-0.125406 29.2352 -0.125406 30.0585 0.380331 30.5643L2.43636 32.6203C2.68949 32.8734 3.02187 33 3.35432 33C3.68619 33 4.01858 32.8734 4.2717 32.6203L4.77138 32.1206C5.22978 31.6622 5.26835 30.9462 4.89688 30.4388L10.5228 24.8129C11.2701 25.2758 12.1006 25.5977 12.9816 25.7594C13.0774 25.777 13.1732 25.7853 13.2689 25.7853C13.6453 25.7853 14.0129 25.651 14.309 25.4001C14.6915 25.0749 14.9061 24.6005 14.8962 24.0963C14.8857 23.5339 14.5907 23.0343 14.1467 22.7458L16.5004 20.3921L18.8541 22.7458C18.4094 23.0342 18.1145 23.5344 18.104 24.0991C18.0947 24.6004 18.3087 25.0748 18.6912 25.4C18.9878 25.651 19.3555 25.7852 19.7319 25.7852C19.8271 25.7852 19.9234 25.777 20.0191 25.7594C20.9002 25.5976 21.7306 25.2756 22.4774 24.8128L28.1033 30.4388C27.9404 30.66 27.8491 30.9236 27.8491 31.2032C27.8491 31.5499 27.9839 31.8757 28.2288 32.1206L28.7285 32.6202C28.9816 32.8734 29.314 33 29.6464 33C29.9783 33 30.3107 32.8734 30.5638 32.6202L32.6198 30.5648C32.8647 30.3193 33.0001 29.9935 33.0001 29.6468C33 29.3002 32.8646 28.9739 32.6203 28.7296ZM4.13234 29.6469L3.35419 28.8682L8.83262 23.3892L9.23711 23.7937L9.24207 23.7992C9.24317 23.8003 9.24485 23.8014 9.24594 23.8025L9.61135 24.1679L4.13234 29.6469ZM27.6883 2.97779L31.4894 1.51172L30.0228 5.31223L19.6134 15.7227L18.8347 14.9439L28.4516 5.32758C28.6662 5.11244 28.6662 4.76406 28.4516 4.54944C28.2364 4.33423 27.888 4.33423 27.6734 4.54944L18.0565 14.1657L17.2784 13.3876L27.6883 2.97779ZM12.9914 22.3441C12.7642 22.2638 12.5495 22.1587 12.3426 22.0387C12.2677 21.9941 12.1934 21.949 12.1214 21.8995C12.0641 21.861 12.0069 21.8219 11.9519 21.78C11.8165 21.6766 11.6839 21.5682 11.5595 21.4466C11.444 21.3293 11.3411 21.2039 11.2431 21.0751C11.193 21.0085 11.1468 20.9397 11.1017 20.8698C11.0648 20.8148 11.0301 20.7581 10.9965 20.7014C10.9393 20.6024 10.8838 20.5022 10.8364 20.3982C10.832 20.3894 10.8287 20.38 10.8249 20.3712C10.7688 20.2468 10.7187 20.1192 10.6769 19.9887L13.3872 17.279L15.7217 19.614L12.9914 22.3441ZM4.54895 5.32765C4.33375 5.1125 4.33375 4.76413 4.54895 4.5495C4.76358 4.33429 5.11196 4.33429 5.3271 4.5495L20.2006 19.423C20.4158 19.6382 20.4158 19.9865 20.2006 20.2012C20.0933 20.3091 19.9524 20.3624 19.8115 20.3624C19.6706 20.3624 19.5298 20.309 19.4225 20.2012L4.54895 5.32765ZM24.6071 19.9491C24.3886 21.1009 23.8355 22.1532 23.0002 23.0001L22.9765 23.0243C22.1268 23.8718 21.0064 24.459 19.8199 24.677C19.6223 24.7139 19.4737 24.6198 19.4038 24.5608C19.2739 24.4507 19.2013 24.2895 19.2046 24.1172C19.209 23.8586 19.3862 23.6396 19.6256 23.5955C19.7472 23.5735 19.8644 23.5328 19.9839 23.5008C19.9882 23.4997 19.9921 23.5003 19.9965 23.4992C20.0042 23.497 20.0108 23.4937 20.0185 23.4915C20.2023 23.4414 20.3823 23.3814 20.5594 23.3093C20.6073 23.29 20.6541 23.268 20.7009 23.2477C20.8434 23.1838 20.9848 23.1189 21.1219 23.0413C21.2275 22.9829 21.3282 22.9147 21.4301 22.8481C21.5132 22.7931 21.5979 22.7436 21.6788 22.683C21.8659 22.5444 22.0464 22.3935 22.217 22.2262L22.2225 22.2208C22.223 22.2202 22.2236 22.2202 22.2242 22.2191C22.2346 22.2092 22.2424 22.1971 22.2523 22.1866C22.4003 22.0337 22.5384 21.873 22.6639 21.7029C22.7613 21.573 22.8427 21.4349 22.9253 21.2973C22.9544 21.2489 22.9874 21.2037 23.0144 21.1542C23.1107 20.9803 23.191 20.7998 23.2648 20.616C23.2709 20.6 23.2791 20.5846 23.2852 20.5686C23.3589 20.3771 23.4173 20.1812 23.4657 19.9814C23.4679 19.971 23.4723 19.9616 23.4745 19.9512C23.4756 19.9484 23.4751 19.9451 23.4756 19.9419C23.4943 19.8621 23.5224 19.7861 23.5367 19.7052C23.5791 19.4636 23.7959 19.282 24.0524 19.2738C24.0584 19.2732 24.065 19.2732 24.0711 19.2732C24.2863 19.2732 24.42 19.391 24.4811 19.4625C24.5949 19.5953 24.6406 19.7731 24.6071 19.9491ZM31.8416 29.7862L29.7855 31.8422C29.7085 31.9187 29.583 31.9193 29.5071 31.8422L29.0068 31.3425C28.9567 31.2924 28.9496 31.2336 28.9496 31.2033C28.9496 31.1731 28.9568 31.1142 29.0074 31.0641L29.2567 30.8142L30.8136 29.2579L31.0634 29.0075C31.1019 28.9695 31.1526 28.9503 31.2027 28.9503C31.2533 28.9503 31.3034 28.9695 31.3419 29.0075L31.8416 29.5078C31.8917 29.5579 31.8994 29.6162 31.8994 29.647C31.8994 29.6772 31.8917 29.7361 31.8416 29.7862Z" fill="#FFD762"/>
</g>
<defs>
<clipPath id="clip0_46_14189">
<rect width="33" height="33" fill="white"/>
</clipPath>
</defs>
</svg>
